<?xml version="1.0" encoding="UTF-8"?>
<svg width="20px" height="36px" viewBox="0 0 20 36" version="1.1" xmlns="http://www.w3.org/2000/svg" xmlns:xlink="http://www.w3.org/1999/xlink">
    <!-- Generator: Sketch 54.1 (76490) - https://sketchapp.com -->
    <title>arrow_left</title>
    <desc>Created with Sketch.</desc>
    <g id="主页" stroke="none" stroke-width="1" fill="none" fill-rule="evenodd">
        <path d="M19.0909091,2.7 L4.35419304,17.2893489 C3.96171127,17.6779058 3.95852958,18.3110628 4.34708653,18.7035446 C4.34944345,18.7059253 4.35181231,18.7082942 4.35419304,18.7106511 L19.0909091,33.3 C19.5879654,33.7920857 19.5919948,34.5939437 19.0999091,35.091 C19.0969242,35.0940151 19.0939241,35.0970151 19.0909091,35.1 L19.0909091,35.1 C18.5873609,35.5985127 17.7762755,35.5985127 17.2727273,35.1 L0.717829403,18.7106511 C0.325347633,18.3220942 0.32216594,17.6889372 0.710722892,17.2964554 C0.71307981,17.2940747 0.715448677,17.2917058 0.717829403,17.2893489 L17.2727273,0.9 C17.7762755,0.401487284 18.5873609,0.401487284 19.0909091,0.9 L19.0909091,0.9 C19.5879654,1.39208571 19.5919948,2.19394373 19.0999091,2.691 C19.0969242,2.69401506 19.0939241,2.69701509 19.0909091,2.7 Z" id="arrow_left" fill="#414141"></path>
    </g>
</svg>