<?xml version="1.0" encoding="UTF-8"?>
<svg width="40px" height="40px" viewBox="0 0 40 40" version="1.1" xmlns="http://www.w3.org/2000/svg" xmlns:xlink="http://www.w3.org/1999/xlink">
    <!-- Generator: Sketch 54.1 (76490) - https://sketchapp.com -->
    <title>icon_search</title>
    <desc>Created with Sketch.</desc>
    <g id="行情" stroke="none" stroke-width="1" fill="none" fill-rule="evenodd">
        <g id="icon_search" transform="translate(2.000000, 2.000000)">
            <rect id="Rectangle" x="0" y="0" width="36" height="36"></rect>
            <path d="M26.4658473,24.6718234 C26.6298648,24.7389377 26.7835413,24.8390744 26.9167002,24.9722334 L35.3427232,33.3982563 C35.8796729,33.935206 35.8796729,34.8057735 35.3427232,35.3427232 C34.8057735,35.8796729 33.935206,35.8796729 33.3982563,35.3427232 L24.9722334,26.9167002 C24.8390744,26.7835413 24.7389377,26.6298648 24.6718234,26.4658473 C22.0604339,28.6708886 18.6854323,30 15,30 C6.71572875,30 -7.81597009e-14,23.2842712 -7.81597009e-14,15 C-7.81597009e-14,6.71572875 6.71572875,-8.52651283e-14 15,-8.52651283e-14 C23.2842712,-8.52651283e-14 30,6.71572875 30,15 C30,18.6854323 28.6708886,22.0604339 26.4658473,24.6718234 Z M15,28 C22.1797017,28 28,22.1797017 28,15 C28,7.82029825 22.1797017,2 15,2 C7.82029825,2 2,7.82029825 2,15 C2,22.1797017 7.82029825,28 15,28 Z" id="形状结合" fill="#000000" fill-rule="nonzero"></path>
        </g>
    </g>
</svg>